#N canvas 129 142 1280 755 12;
#X obj 247 546 vcf~ 220 1;
#X obj 280 386 mtof~;
#X obj 280 519 +~;
#X obj 298 492 *~;
#X obj 298 438 osc~;
#X obj 298 417 nbx 5 14 -1e+037 1e+037 0 0 empty empty empty 0 -8 0
10 -262144 -1 -1 0 256;
#X obj 316 468 nbx 5 14 -1e+037 1e+037 0 0 empty empty empty 0 -8 0
10 -262144 -1 -1 0 256;
#X obj 245 698 dac~;
#X obj 265 612 / 127;
#X obj 247 642 *~;
#X obj 198 243 phasor~;
#X obj 259 271 expr~ $v1 > 0.5;
#X obj 258 243 phasor~;
#X obj 399 262 / 127;
#X obj 217 299 *~;
#X obj 260 300 *~;
#X obj 399 285 - 1;
#X obj 399 308 abs;
#X obj 243 336 +~;
#X obj 283 96 mtof;
#X obj 283 55 key;
#X floatatom 322 97 5 0 0 0 - - -;
#X obj 282 151 /;
#X obj 323 33 hradio 15 1 0 8 empty empty Scale 0 -8 0 10 -262144 -1
-1 4;
#X obj 243 377 *~;
#X obj 334 524 int;
#X obj 800 49 keyup;
#X obj 557 170 bng 15 250 50 0 empty empty empty 17 7 0 10 -262144
-1 -1;
#X msg 556 196 1;
#X obj 800 138 bng 15 250 50 0 empty empty empty 17 7 0 10 -262144
-1 -1;
#X floatatom 829 88 5 0 0 0 - - -;
#X msg 800 169 0;
#X obj 575 347 vline~;
#X msg 575 277 1 \$2 \, \$4 \$3 \$2;
#X msg 723 307 0 \$2;
#X floatatom 598 198 5 0 0 0 - - -;
#X floatatom 640 197 5 0 0 0 - - -;
#X floatatom 683 197 5 0 0 0 - - -;
#X floatatom 725 197 5 0 0 0 - - -;
#X obj 575 246 pack f f f f;
#X obj 723 275 pack f f;
#X obj 382 384 r lpf @hv_param 0 127 127;
#X obj 396 219 r waveform @hv_param 0 127 0;
#X obj 406 454 r lpfr @hv_param 1 10 4;
#X obj 335 584 r waveform @hv_param 0 127 127;
#X obj 546 8 r a @hv_param 0 299 1;
#X obj 571 39 r d @hv_param 0 499 1;
#X obj 603 71 r s @hv_param 0 1 1;
#X obj 621 100 r r @hv_param 0 999 200;
#X connect 0 0 9 0;
#X connect 1 0 2 0;
#X connect 2 0 0 1;
#X connect 3 0 2 1;
#X connect 4 0 3 0;
#X connect 5 0 4 0;
#X connect 6 0 3 1;
#X connect 8 0 9 1;
#X connect 9 0 7 0;
#X connect 9 0 7 1;
#X connect 10 0 14 0;
#X connect 11 0 15 0;
#X connect 12 0 11 0;
#X connect 13 0 16 0;
#X connect 13 0 15 1;
#X connect 14 0 18 0;
#X connect 15 0 18 1;
#X connect 16 0 17 0;
#X connect 17 0 14 1;
#X connect 18 0 24 0;
#X connect 19 0 22 0;
#X connect 20 0 19 0;
#X connect 20 0 27 0;
#X connect 21 0 22 1;
#X connect 22 0 12 0;
#X connect 22 0 10 0;
#X connect 23 0 21 0;
#X connect 24 0 0 0;
#X connect 25 0 0 2;
#X connect 26 0 29 0;
#X connect 26 0 30 0;
#X connect 27 0 28 0;
#X connect 28 0 39 0;
#X connect 29 0 31 0;
#X connect 31 0 40 0;
#X connect 32 0 24 1;
#X connect 33 0 32 0;
#X connect 34 0 32 0;
#X connect 35 0 39 1;
#X connect 36 0 39 2;
#X connect 37 0 39 3;
#X connect 38 0 40 1;
#X connect 39 0 33 0;
#X connect 40 0 34 0;
#X connect 41 0 1 0;
#X connect 42 0 13 0;
#X connect 43 0 25 0;
#X connect 44 0 8 0;
#X connect 45 0 35 0;
#X connect 46 0 36 0;
#X connect 47 0 37 0;
#X connect 48 0 38 0;
